<svg version="1.1" id="Layer_1" xmlns="http://www.w3.org/2000/svg" xmlns:xlink="http://www.w3.org/1999/xlink" x="0px" y="0px" width="100%" viewBox="0 0 425 424" enable-background="new 0 0 425 424" xml:space="preserve">
<path fill="none" opacity="1.000000" stroke="none" d="&#xA;M211.000000,1.000000 &#xA;&#x9;C282.641846,1.000000 354.283691,1.000000 425.962769,1.000000 &#xA;&#x9;C425.962769,142.259567 425.962769,283.519135 425.962769,424.889343 &#xA;&#x9;C284.456238,424.889343 142.912354,424.889343 1.000000,424.889343 &#xA;&#x9;C1.000000,359.979034 1.000000,294.957367 1.332030,229.708893 &#xA;&#x9;C4.534838,260.309326 13.004098,289.377380 28.700077,316.685120 &#xA;&#x9;C31.813311,314.955170 34.540649,313.412781 37.293514,311.917389 &#xA;&#x9;C40.169941,310.354889 43.070969,308.837677 45.835678,307.367462 &#xA;&#x9;C13.075359,243.203293 10.918923,179.183502 47.448181,116.839432 &#xA;&#x9;C83.861931,54.692501 140.189545,24.144699 212.642456,21.233883 &#xA;&#x9;C212.086273,14.382049 211.543137,7.691025 211.000000,1.000000 &#xA;M364.664856,300.260468 &#xA;&#x9;C365.027405,300.604828 365.387573,300.951721 365.752838,301.293182 &#xA;&#x9;C369.232239,304.545868 373.154053,304.938660 375.889038,302.309509 &#xA;&#x9;C378.320953,299.971741 377.619629,293.833466 374.440063,290.111694 &#xA;&#x9;C371.014069,286.101471 369.033813,290.160645 366.568604,291.550293 &#xA;&#x9;C366.316956,291.692139 365.942200,291.615509 365.623444,291.625885 &#xA;&#x9;C364.029327,285.993561 363.706207,286.094879 359.093536,290.070129 &#xA;&#x9;C355.643158,293.043671 351.333008,293.704132 346.406555,292.680817 &#xA;&#x9;C350.368835,289.130432 354.519318,286.228088 352.322357,279.965240 &#xA;&#x9;C346.508972,281.637970 342.364746,284.581909 341.304230,291.672791 &#xA;&#x9;C337.031677,290.080597 333.010773,289.033783 329.413544,287.169403 &#xA;&#x9;C303.301300,273.635712 277.440186,276.003418 251.720963,288.160278 &#xA;&#x9;C226.634521,300.018127 208.051926,319.359192 191.476593,340.950592 &#xA;&#x9;C188.396317,344.963013 185.490036,349.108978 182.792770,352.797668 &#xA;&#x9;C178.046738,345.481171 174.302628,337.947021 168.951660,331.815094 &#xA;&#x9;C156.576660,317.634003 139.949829,315.454224 122.341629,317.492493 &#xA;&#x9;C117.448532,318.058899 112.613365,319.125885 107.751625,319.963196 &#xA;&#x9;C109.387924,317.712891 111.427925,316.638214 113.259560,315.282135 &#xA;&#x9;C121.134323,309.451874 129.518860,304.157410 136.680756,297.544678 &#xA;&#x9;C162.080460,274.092743 180.847534,245.613617 196.229950,214.962814 &#xA;&#x9;C207.719467,192.069000 217.907318,168.523636 228.884705,145.367905 &#xA;&#x9;C229.760880,143.519699 232.119675,141.491470 234.052841,141.179611 &#xA;&#x9;C242.558899,139.807449 251.233917,139.449844 259.716919,137.973297 &#xA;&#x9;C296.979828,131.487320 329.879303,116.280197 355.490692,87.752075 &#xA;&#x9;C365.955170,76.095917 373.958435,62.950867 373.129395,46.145973 &#xA;&#x9;C372.503052,33.450436 365.845032,24.776056 353.394928,21.984426 &#xA;&#x9;C340.170685,19.019205 327.624695,22.538578 315.370239,26.917694 &#xA;&#x9;C295.067749,34.172749 278.294220,47.042171 262.999420,61.776970 &#xA;&#x9;C243.441132,80.619164 227.699692,102.454147 214.868378,126.366928 &#xA;&#x9;C209.261368,136.816330 207.134857,137.947739 195.445862,135.646515 &#xA;&#x9;C194.306290,135.422180 193.152985,135.256500 192.025574,134.983109 &#xA;&#x9;C169.181061,129.443649 151.964554,117.298538 144.824463,93.870247 &#xA;&#x9;C139.472931,76.310577 150.188675,55.713650 167.455872,49.709705 &#xA;&#x9;C178.353058,45.920654 189.310898,46.715115 200.494156,49.840813 &#xA;&#x9;C200.912476,48.248711 201.266663,46.900696 201.669846,45.366226 &#xA;&#x9;C190.852646,41.705368 180.214630,40.779514 169.514755,43.827988 &#xA;&#x9;C143.445435,51.255333 131.045273,78.428139 142.325226,103.509834 &#xA;&#x9;C151.706741,124.370224 168.822281,135.284271 190.514984,139.928894 &#xA;&#x9;C195.497345,140.995667 200.587189,141.560455 206.280670,142.459381 &#xA;&#x9;C204.106979,147.320724 202.091492,151.830109 200.074493,156.338806 &#xA;&#x9;C186.282852,187.167999 172.955292,218.216263 158.541260,248.751678 &#xA;&#x9;C148.359589,270.321075 136.334442,291.069153 118.123985,307.062103 &#xA;&#x9;C111.645302,312.751892 103.867294,317.861938 95.788826,320.605804 &#xA;&#x9;C85.372009,324.143921 73.908569,324.461273 63.170475,327.230469 &#xA;&#x9;C51.482964,330.244476 40.019245,334.231659 28.681826,338.403046 &#xA;&#x9;C26.583260,339.175140 24.690878,342.734924 24.395454,345.210052 &#xA;&#x9;C24.254654,346.389679 28.113234,349.291565 30.109816,349.245148 &#xA;&#x9;C35.818516,349.112457 41.886677,348.873474 47.118511,346.865509 &#xA;&#x9;C60.140926,341.867645 73.070671,336.442719 85.503822,330.136780 &#xA;&#x9;C106.391083,319.543030 138.518875,325.537018 151.363129,343.561523 &#xA;&#x9;C157.149902,351.682190 161.103561,360.511322 161.462433,370.185455 &#xA;&#x9;C161.632690,374.775208 157.672089,379.421326 156.109680,384.213654 &#xA;&#x9;C155.347031,386.552979 154.877350,389.853424 155.993958,391.651093 &#xA;&#x9;C156.807831,392.961365 160.479462,392.959900 162.791290,392.719238 &#xA;&#x9;C164.429169,392.548767 166.309280,391.324371 167.409302,390.008636 &#xA;&#x9;C170.587891,386.206604 174.023804,382.426117 176.252747,378.071136 &#xA;&#x9;C179.264160,372.187317 180.699387,365.490570 183.760651,359.639557 &#xA;&#x9;C199.375061,329.795654 222.819916,307.736328 252.492035,292.212372 &#xA;&#x9;C266.201569,285.039795 280.729431,280.604218 296.460754,280.979797 &#xA;&#x9;C306.706116,281.224396 315.777313,285.451721 325.151398,288.809692 &#xA;&#x9;C329.312042,290.300110 331.449219,292.312958 331.217621,297.088898 &#xA;&#x9;C330.959473,302.412018 336.172119,308.443756 341.793030,309.768829 &#xA;&#x9;C341.691956,307.465637 341.598969,305.346313 341.468323,302.369446 &#xA;&#x9;C345.217377,304.948792 348.304291,307.072632 351.698212,309.407684 &#xA;&#x9;C354.646454,303.617218 350.596924,300.747192 348.771942,297.077667 &#xA;&#x9;C352.917480,298.774414 357.444672,299.521759 359.412537,304.356201 &#xA;&#x9;C359.750458,305.186310 361.496216,305.799835 362.594482,305.804230 &#xA;&#x9;C363.097321,305.806244 363.822266,304.137482 364.050690,303.136169 &#xA;&#x9;C364.262360,302.208191 363.946564,301.159912 363.953400,300.053314 &#xA;&#x9;C363.953400,300.053314 364.043579,299.941864 364.664856,300.260468 &#xA;M409.085114,137.417557 &#xA;&#x9;C403.457611,123.212868 396.861267,109.522499 387.991791,96.742256 &#xA;&#x9;C382.196625,100.387970 376.796143,103.785385 371.410767,107.173309 &#xA;&#x9;C428.722870,197.603683 399.994659,295.427002 346.561401,347.736206 &#xA;&#x9;C316.164703,377.493500 279.915436,396.255157 237.543533,401.600128 &#xA;&#x9;C177.722092,409.146210 125.525558,391.528107 80.710617,351.243011 &#xA;&#x9;C76.118134,356.358063 71.929047,361.023834 67.563416,365.886230 &#xA;&#x9;C68.433487,366.815216 69.039474,367.576019 69.756508,368.211548 &#xA;&#x9;C111.914536,405.576996 160.890656,424.484314 217.492920,423.198853 &#xA;&#x9;C246.889847,422.531219 274.792419,416.031097 301.340668,403.453705 &#xA;&#x9;C340.031494,385.123718 370.427673,357.662048 392.620575,321.047455 &#xA;&#x9;C412.596497,288.090546 422.554352,252.314621 422.829987,213.855591 &#xA;&#x9;C423.016602,187.816925 418.476562,162.559250 409.085114,137.417557 &#xA;z"></path>
<path fill="none" opacity="1.000000" stroke="none" d="&#xA;M0.999999,198.000000 &#xA;&#x9;C1.000000,132.405563 1.000000,66.811134 1.000000,1.000000 &#xA;&#x9;C67.687401,1.000000 134.375046,1.000000 201.316437,1.363524 &#xA;&#x9;C195.946793,2.256609 190.296387,2.587603 184.704239,3.347281 &#xA;&#x9;C141.648148,9.196320 103.748772,26.479141 71.457512,55.525928 &#xA;&#x9;C36.341656,87.113533 14.016522,126.168816 4.977327,172.626923 &#xA;&#x9;C3.343407,181.024658 2.310419,189.539322 0.999999,198.000000 &#xA;z"></path>
<path fill="#907C84" opacity="1.000000" stroke="none" d="&#xA;M0.999999,198.468658 &#xA;&#x9;C2.310419,189.539322 3.343407,181.024658 4.977327,172.626923 &#xA;&#x9;C14.016522,126.168816 36.341656,87.113533 71.457512,55.525928 &#xA;&#x9;C103.748772,26.479141 141.648148,9.196320 184.704239,3.347281 &#xA;&#x9;C190.296387,2.587603 195.946793,2.256609 201.785095,1.363524 &#xA;&#x9;C204.700012,1.000000 207.400024,1.000000 210.550018,1.000000 &#xA;&#x9;C211.543137,7.691025 212.086273,14.382049 212.642456,21.233883 &#xA;&#x9;C140.189545,24.144699 83.861931,54.692501 47.448181,116.839432 &#xA;&#x9;C10.918923,179.183502 13.075359,243.203293 45.835678,307.367462 &#xA;&#x9;C43.070969,308.837677 40.169941,310.354889 37.293514,311.917389 &#xA;&#x9;C34.540649,313.412781 31.813311,314.955170 28.700077,316.685120 &#xA;&#x9;C13.004098,289.377380 4.534838,260.309326 1.332030,229.241028 &#xA;&#x9;C1.000000,218.979111 1.000000,208.958206 0.999999,198.468658 &#xA;z"></path>
<path fill="#D9B2AB" opacity="1.000000" stroke="none" d="&#xA;M363.863037,300.164612 &#xA;&#x9;C363.946564,301.159912 364.262360,302.208191 364.050690,303.136169 &#xA;&#x9;C363.822266,304.137482 363.097321,305.806244 362.594482,305.804230 &#xA;&#x9;C361.496216,305.799835 359.750458,305.186310 359.412537,304.356201 &#xA;&#x9;C357.444672,299.521759 352.917480,298.774414 348.771942,297.077667 &#xA;&#x9;C350.596924,300.747192 354.646454,303.617218 351.698212,309.407684 &#xA;&#x9;C348.304291,307.072632 345.217377,304.948792 341.468323,302.369446 &#xA;&#x9;C341.598969,305.346313 341.691956,307.465637 341.793030,309.768829 &#xA;&#x9;C336.172119,308.443756 330.959473,302.412018 331.217621,297.088898 &#xA;&#x9;C331.449219,292.312958 329.312042,290.300110 325.151398,288.809692 &#xA;&#x9;C315.777313,285.451721 306.706116,281.224396 296.460754,280.979797 &#xA;&#x9;C280.729431,280.604218 266.201569,285.039795 252.492035,292.212372 &#xA;&#x9;C222.819916,307.736328 199.375061,329.795654 183.760651,359.639557 &#xA;&#x9;C180.699387,365.490570 179.264160,372.187317 176.252747,378.071136 &#xA;&#x9;C174.023804,382.426117 170.587891,386.206604 167.409302,390.008636 &#xA;&#x9;C166.309280,391.324371 164.429169,392.548767 162.791290,392.719238 &#xA;&#x9;C160.479462,392.959900 156.807831,392.961365 155.993958,391.651093 &#xA;&#x9;C154.877350,389.853424 155.347031,386.552979 156.109680,384.213654 &#xA;&#x9;C157.672089,379.421326 161.632690,374.775208 161.462433,370.185455 &#xA;&#x9;C161.103561,360.511322 157.149902,351.682190 151.363129,343.561523 &#xA;&#x9;C138.518875,325.537018 106.391083,319.543030 85.503822,330.136780 &#xA;&#x9;C73.070671,336.442719 60.140926,341.867645 47.118511,346.865509 &#xA;&#x9;C41.886677,348.873474 35.818516,349.112457 30.109816,349.245148 &#xA;&#x9;C28.113234,349.291565 24.254654,346.389679 24.395454,345.210052 &#xA;&#x9;C24.690878,342.734924 26.583260,339.175140 28.681826,338.403046 &#xA;&#x9;C40.019245,334.231659 51.482964,330.244476 63.170475,327.230469 &#xA;&#x9;C73.908569,324.461273 85.372009,324.143921 95.788826,320.605804 &#xA;&#x9;C103.867294,317.861938 111.645302,312.751892 118.123985,307.062103 &#xA;&#x9;C136.334442,291.069153 148.359589,270.321075 158.541260,248.751678 &#xA;&#x9;C172.955292,218.216263 186.282852,187.167999 200.074493,156.338806 &#xA;&#x9;C202.091492,151.830109 204.106979,147.320724 206.280670,142.459381 &#xA;&#x9;C200.587189,141.560455 195.497345,140.995667 190.514984,139.928894 &#xA;&#x9;C168.822281,135.284271 151.706741,124.370224 142.325226,103.509834 &#xA;&#x9;C131.045273,78.428139 143.445435,51.255333 169.514755,43.827988 &#xA;&#x9;C180.214630,40.779514 190.852646,41.705368 201.669846,45.366226 &#xA;&#x9;C201.266663,46.900696 200.912476,48.248711 200.494156,49.840813 &#xA;&#x9;C189.310898,46.715115 178.353058,45.920654 167.455872,49.709705 &#xA;&#x9;C150.188675,55.713650 139.472931,76.310577 144.824463,93.870247 &#xA;&#x9;C151.964554,117.298538 169.181061,129.443649 192.025574,134.983109 &#xA;&#x9;C193.152985,135.256500 194.306290,135.422180 195.445862,135.646515 &#xA;&#x9;C207.134857,137.947739 209.261368,136.816330 214.868378,126.366928 &#xA;&#x9;C227.699692,102.454147 243.441132,80.619164 262.999420,61.776970 &#xA;&#x9;C278.294220,47.042171 295.067749,34.172749 315.370239,26.917694 &#xA;&#x9;C327.624695,22.538578 340.170685,19.019205 353.394928,21.984426 &#xA;&#x9;C365.845032,24.776056 372.503052,33.450436 373.129395,46.145973 &#xA;&#x9;C373.958435,62.950867 365.955170,76.095917 355.490692,87.752075 &#xA;&#x9;C329.879303,116.280197 296.979828,131.487320 259.716919,137.973297 &#xA;&#x9;C251.233917,139.449844 242.558899,139.807449 234.052841,141.179611 &#xA;&#x9;C232.119675,141.491470 229.760880,143.519699 228.884705,145.367905 &#xA;&#x9;C217.907318,168.523636 207.719467,192.069000 196.229950,214.962814 &#xA;&#x9;C180.847534,245.613617 162.080460,274.092743 136.680756,297.544678 &#xA;&#x9;C129.518860,304.157410 121.134323,309.451874 113.259560,315.282135 &#xA;&#x9;C111.427925,316.638214 109.387924,317.712891 107.751625,319.963196 &#xA;&#x9;C112.613365,319.125885 117.448532,318.058899 122.341629,317.492493 &#xA;&#x9;C139.949829,315.454224 156.576660,317.634003 168.951660,331.815094 &#xA;&#x9;C174.302628,337.947021 178.046738,345.481171 182.792770,352.797668 &#xA;&#x9;C185.490036,349.108978 188.396317,344.963013 191.476593,340.950592 &#xA;&#x9;C208.051926,319.359192 226.634521,300.018127 251.720963,288.160278 &#xA;&#x9;C277.440186,276.003418 303.301300,273.635712 329.413544,287.169403 &#xA;&#x9;C333.010773,289.033783 337.031677,290.080597 341.304230,291.672791 &#xA;&#x9;C342.364746,284.581909 346.508972,281.637970 352.322357,279.965240 &#xA;&#x9;C354.519318,286.228088 350.368835,289.130432 346.406555,292.680817 &#xA;&#x9;C351.333008,293.704132 355.643158,293.043671 359.093536,290.070129 &#xA;&#x9;C363.706207,286.094879 364.029327,285.993561 365.624023,291.633087 &#xA;&#x9;C365.942200,291.615509 366.316956,291.692139 366.568604,291.550293 &#xA;&#x9;C369.033813,290.160645 371.014069,286.101471 374.440063,290.111694 &#xA;&#x9;C377.619629,293.833466 378.320953,299.971741 375.889038,302.309509 &#xA;&#x9;C373.154053,304.938660 369.232239,304.545868 365.752838,301.293182 &#xA;&#x9;C365.387573,300.951721 365.027405,300.604828 364.150757,299.815125 &#xA;&#x9;C362.025238,298.889496 360.413818,298.409241 358.802429,297.928986 &#xA;&#x9;C358.706329,298.428070 358.610260,298.927185 358.514191,299.426270 &#xA;&#x9;C360.297150,299.672394 362.080078,299.918518 363.863037,300.164612 &#xA;M284.504608,126.058258 &#xA;&#x9;C306.434998,118.398598 326.549744,107.691200 342.729462,90.643967 &#xA;&#x9;C353.324036,79.481316 360.737122,66.861259 360.021729,50.667461 &#xA;&#x9;C359.291779,34.145229 349.826355,25.214504 334.142456,27.077114 &#xA;&#x9;C324.128693,28.266344 314.797302,31.709333 306.228668,37.125420 &#xA;&#x9;C288.772827,48.158970 275.155823,63.132584 263.263824,79.703407 &#xA;&#x9;C250.834061,97.023521 240.913589,115.796921 232.433044,135.457520 &#xA;&#x9;C241.739670,136.760818 266.596985,132.261978 284.504608,126.058258 &#xA;M364.219910,293.375458 &#xA;&#x9;C361.764862,293.375458 359.309784,293.375458 356.854736,293.375458 &#xA;&#x9;C356.924164,294.080750 356.993591,294.786011 357.063019,295.491302 &#xA;&#x9;C359.336609,294.996429 361.610229,294.501556 364.219910,293.375458 &#xA;M105.420341,320.471497 &#xA;&#x9;C105.420341,320.471497 105.603554,320.572052 105.603554,320.572052 &#xA;&#x9;C105.603554,320.572052 105.575928,320.385620 105.420341,320.471497 &#xA;z"></path>
<path fill="#907C84" opacity="1.000000" stroke="none" d="&#xA;M409.211609,137.784653 &#xA;&#x9;C418.476562,162.559250 423.016602,187.816925 422.829987,213.855591 &#xA;&#x9;C422.554352,252.314621 412.596497,288.090546 392.620575,321.047455 &#xA;&#x9;C370.427673,357.662048 340.031494,385.123718 301.340668,403.453705 &#xA;&#x9;C274.792419,416.031097 246.889847,422.531219 217.492920,423.198853 &#xA;&#x9;C160.890656,424.484314 111.914536,405.576996 69.756508,368.211548 &#xA;&#x9;C69.039474,367.576019 68.433487,366.815216 67.563416,365.886230 &#xA;&#x9;C71.929047,361.023834 76.118134,356.358063 80.710617,351.243011 &#xA;&#x9;C125.525558,391.528107 177.722092,409.146210 237.543533,401.600128 &#xA;&#x9;C279.915436,396.255157 316.164703,377.493500 346.561401,347.736206 &#xA;&#x9;C399.994659,295.427002 428.722870,197.603683 371.410767,107.173309 &#xA;&#x9;C376.796143,103.785385 382.196625,100.387970 387.991791,96.742256 &#xA;&#x9;C396.861267,109.522499 403.457611,123.212868 409.211609,137.784653 &#xA;z"></path>
<path fill="none" opacity="1.000000" stroke="none" d="&#xA;M284.126312,126.170029 &#xA;&#x9;C266.596985,132.261978 241.739670,136.760818 232.433044,135.457520 &#xA;&#x9;C240.913589,115.796921 250.834061,97.023521 263.263824,79.703407 &#xA;&#x9;C275.155823,63.132584 288.772827,48.158970 306.228668,37.125420 &#xA;&#x9;C314.797302,31.709333 324.128693,28.266344 334.142456,27.077114 &#xA;&#x9;C349.826355,25.214504 359.291779,34.145229 360.021729,50.667461 &#xA;&#x9;C360.737122,66.861259 353.324036,79.481316 342.729462,90.643967 &#xA;&#x9;C326.549744,107.691200 306.434998,118.398598 284.126312,126.170029 &#xA;z"></path>
<path fill="none" opacity="1.000000" stroke="none" d="&#xA;M364.051880,293.691071 &#xA;&#x9;C361.610229,294.501556 359.336609,294.996429 357.063019,295.491302 &#xA;&#x9;C356.993591,294.786011 356.924164,294.080750 356.854736,293.375458 &#xA;&#x9;C359.309784,293.375458 361.764862,293.375458 364.051880,293.691071 &#xA;z"></path>
<path fill="none" opacity="1.000000" stroke="none" d="&#xA;M363.908203,300.108948 &#xA;&#x9;C362.080078,299.918518 360.297150,299.672394 358.514191,299.426270 &#xA;&#x9;C358.610260,298.927185 358.706329,298.428070 358.802429,297.928986 &#xA;&#x9;C360.413818,298.409241 362.025238,298.889496 363.840118,299.655823 &#xA;&#x9;C364.043579,299.941864 363.953400,300.053314 363.908203,300.108948 &#xA;z"></path>
<path fill="none" opacity="1.000000" stroke="none" d="&#xA;M105.498138,320.428558 &#xA;&#x9;C105.575928,320.385620 105.603554,320.572052 105.603554,320.572052 &#xA;&#x9;C105.603554,320.572052 105.420341,320.471497 105.498138,320.428558 &#xA;z"></path>
</svg>